<?xml version="1.0" encoding="utf-8"?>
<!-- Generator: Adobe Illustrator 21.0.0, SVG Export Plug-In . SVG Version: 6.00 Build 0)  -->
<svg version="1.1" xmlns="http://www.w3.org/2000/svg" xmlns:xlink="http://www.w3.org/1999/xlink" x="0px" y="0px"
	 viewBox="0 0 144 144" style="enable-background:new 0 0 144 144;" xml:space="preserve">
<style type="text/css">
	.st0{fill:#A69713;}
	.st1{fill:#FFFFFF;}
</style>
<g id="Слой_1">
	<g>
		<circle class="st0" cx="72" cy="72" r="72"/>
	</g>
</g>
<g id="Capa_1">
	<g>
		<g>
			<path class="st1" d="M116.2,60.1h-7.8c-0.1-0.1-0.1-0.1-0.2-0.2L74.6,36.7c-1.3-0.9-3.1-0.9-4.4,0L36.8,60.1h-9
				c-2.2,0-3.9,1.7-3.9,3.9c0,2.2,1.7,3.9,3.9,3.9H45v3.6h3.5v22H45v5.2h12.1v-5.2h-3.5v-22h3.5v-3.6h2.2v3.6h3.5v22h-3.5v5.2h12.1
				v-5.2h-3.5v-22h3.5v-3.6h1.5v3.6h3.5v22h-3.5v5.2H85v-5.2h-3.5v-22H85v-3.6h1.9v3.6h3.5v22h-3.5v5.2H99v-5.2h-3.5v-22H99v-3.6
				h17.2c2.2,0,3.9-1.7,3.9-3.9C120.1,61.8,118.4,60.1,116.2,60.1z M72.4,44.7l22.3,15.4H50.4L72.4,44.7z"/>
			<path class="st1" d="M106,100.2H36.1c-2.2,0-3.9,1.7-3.9,3.9c0,2.2,1.7,3.9,3.9,3.9H106c2.2,0,3.9-1.7,3.9-3.9
				C109.9,101.9,108.2,100.2,106,100.2z"/>
		</g>
	</g>
</g>
</svg>
