<?xml version="1.0" encoding="utf-8"?>
<!-- Generator: Adobe Illustrator 21.0.0, SVG Export Plug-In . SVG Version: 6.00 Build 0)  -->
<svg version="1.1" id="Слой_1" xmlns="http://www.w3.org/2000/svg" xmlns:xlink="http://www.w3.org/1999/xlink" x="0px" y="0px"
	 viewBox="0 0 240 240" style="enable-background:new 0 0 240 240;" xml:space="preserve">
<style type="text/css">
	.st0{fill:#FFEB3B;}
	.st1{fill:#FFFFFF;}
</style>
<g>
	<circle class="st0" cx="120" cy="120" r="120"/>
</g>
<g>
	<g>
		<path class="st1" d="M148.7,178.5c-10.9,0-22.9-6.4-31.6-11.1c-5.3-2.9-9.2-4.9-11.6-4.9h-0.1v-53h0.1c0.9,0,2.2,0,3.5-1.2
			l20.5-22.1c0.9-0.3,1.4-1.1,1.5-1.9l8-22.5v-0.3c0,0,0.1-0.1,0.2-0.1c4.2,0,11.7,1.4,13.7,10.8c1.6,7.9-2.8,19.4-4.7,23.9
			l-0.1,0.3v0.3c0,2.7,1.6,4.7,3.9,4.7h19.2c0.4,0,11.3,0.9,11.3,11.3l0,0.1c0.7,7.9-2.6,11.5-2.8,11.6l-1,1.1l1,1.1
			c0,0,1.9,2.2,1.2,8.4l0,0.1v0.1c0,5.5-3.3,8.3-3.4,8.4l-0.9,0.8l0.5,1.1c0,0,1.4,2.9,0.7,7.9c-0.7,4.8-4,6.8-4.1,6.9l-1.2,0.7
			l0.6,1.2c0.1,0.2,2,4.2-0.8,9C169.4,176.2,166.2,178.5,148.7,178.5z"/>
		<path d="M140.2,63c3.9,0.2,9.6,2,11.2,9.6c1.6,7.8-3.1,19.6-4.6,23l-0.2,0.6v0.6c0,3.5,2.3,6.2,5.4,6.2H171c1,0.1,9.9,1.1,9.9,9.8
			v0.1l0,0.1c0.6,6.8-2,10.1-2.3,10.4l-2.7,2.1l2.7,2.1c0.2,0.4,1.3,2.4,0.8,7.2l0,0.2v0.2c0,4.8-2.8,7.2-2.9,7.3l-1.9,1.4l1.1,2.2
			c0,0.1,1.2,2.6,0.5,7.1c-0.6,4-3.3,5.8-3.4,5.9l-2.4,1.4l1.2,2.5c0,0,1.6,3.5-0.7,7.6c-2.3,4-4.6,6.5-22.2,6.5
			c-10.5,0-22.3-6.3-30.9-10.9c-5.2-2.8-8.4-4.5-10.9-5v-50.2c0.9-0.1,2.1-0.5,3.1-1.6l0,0l0,0l20.2-21.8c1.1-0.5,1.9-1.6,2.1-2.7
			L140.2,63 M139.1,60c-0.8,0-1.6,0.8-1.6,1.6l-8,22.4c0,0,0,0.8-0.8,0.8l-20.8,22.4c-0.8,0.8-1.6,0.8-2.4,0.8h-1.6v56h1.6
			c5.6,0,25.6,16,43.2,16s21.6-2.4,24.8-8s0.8-10.4,0.8-10.4s4-2.4,4.8-8c0.8-5.6-0.8-8.8-0.8-8.8s4-3.2,4-9.6
			c0.8-7.2-1.6-9.6-1.6-9.6s4-4,3.2-12.8c0-12-12.8-12.8-12.8-12.8h-19.2c-1.6,0-2.4-1.6-2.4-3.2c2.4-5.6,6.4-16.8,4.8-24.8
			C151.9,60.8,142.3,60,139.1,60L139.1,60z"/>
	</g>
	<g>
		<path class="st1" d="M57.4,162.5v-61h37v61H57.4z M75.9,110.5c-5.6,0-9.5,3.9-9.5,9.5c0,5.6,3.9,9.5,9.5,9.5s9.5-3.9,9.5-9.5
			C85.4,114.4,81.5,110.5,75.9,110.5z"/>
		<path d="M92.9,103v58h-34v-58H92.9 M75.9,131c6.5,0,11-4.5,11-11s-4.5-11-11-11s-11,4.5-11,11S69.5,131,75.9,131 M95.9,100h-40v64
			h40V100L95.9,100z M75.9,128c-4.8,0-8-3.2-8-8s3.2-8,8-8s8,3.2,8,8S80.7,128,75.9,128L75.9,128z"/>
	</g>
</g>
</svg>
