<?xml version="1.0" encoding="utf-8"?>
<!-- Generator: Adobe Illustrator 21.0.0, SVG Export Plug-In . SVG Version: 6.00 Build 0)  -->
<svg version="1.1" xmlns="http://www.w3.org/2000/svg" xmlns:xlink="http://www.w3.org/1999/xlink" x="0px" y="0px"
	 viewBox="0 0 144 144" style="enable-background:new 0 0 144 144;" xml:space="preserve">
<style type="text/css">
	.st0{fill:#A69713;}
	.st1{fill:#FFFFFF;}
	.st2{opacity:0.2;fill:#FFFFFF;enable-background:new    ;}
	.st3{opacity:0.1;fill:#FFFFFF;enable-background:new    ;}
</style>
<g id="Слой_1">
	<g>
		<circle class="st0" cx="72" cy="72" r="72"/>
	</g>
</g>
<g id="Capa_1">
</g>
<g id="Layer_1">
	<rect x="67.2" y="63.2" class="st1" width="9.7" height="10.4"/>
	<g>
		<rect x="67.2" y="63.2" class="st2" width="4.8" height="10.4"/>
		<path class="st2" d="M67.2,63.2v2.6c1.5,0.4,3.2,0.7,4.8,0.7c1.7,0,3.3-0.2,4.8-0.7v-2.6H67.2z"/>
	</g>
	<path class="st1" d="M58.1,55.9c2.5,5.1,7.8,8.6,13.9,8.6c6.1,0,11.4-3.5,13.9-8.6H58.1z"/>
	<g>
		<path class="st3" d="M58.1,55.9c2.5,5.1,7.8,8.6,13.9,8.6v-8.6H58.1z"/>
		<path class="st2" d="M58.1,55.9c0.7,1.3,1.5,2.5,2.5,3.6h22.9c1-1.1,1.8-2.3,2.5-3.6C85.9,55.9,58.1,55.9,58.1,55.9z"/>
	</g>
	<path class="st1" d="M85.3,58.1H58.7c-1.2,0-2.2-1-2.2-2.2c0-1.2,1-2.2,2.2-2.2h26.7c1.2,0,2.2,1,2.2,2.2
		C87.5,57.1,86.5,58.1,85.3,58.1z"/>
	<rect x="53.8" y="71.8" class="st1" width="36.4" height="13.7"/>
	<g>
		<path class="st0" d="M60.8,78.7c-1.8,0-3.3,1.5-3.3,3.3v6.5h6.7V82C64.2,80.2,62.7,78.7,60.8,78.7z"/>
		<path class="st0" d="M72,78.7c-1.8,0-3.3,1.5-3.3,3.3v6.5h6.7V82C75.3,80.2,73.8,78.7,72,78.7z"/>
		<path class="st0" d="M83.2,78.7c-1.8,0-3.3,1.5-3.3,3.3v6.5h6.7V82C86.5,80.2,85,78.7,83.2,78.7z"/>
	</g>
	<path class="st1" d="M90,75.8H54c-1.2,0-2.2-1-2.2-2.2c0-1.2,1-2.2,2.2-2.2H90c1.2,0,2.2,1,2.2,2.2C92.1,74.8,91.2,75.8,90,75.8z"
		/>
	<rect x="40.9" y="89.1" class="st1" width="62.2" height="18.1"/>
	<g>
		<path class="st0" d="M47.9,96.5c-2,0-3.6,1.6-3.6,3.6v7h7.2v-7C51.5,98.1,49.9,96.5,47.9,96.5z"/>
		<path class="st0" d="M60,96.5c-2,0-3.6,1.6-3.6,3.6v7h7.2v-7C63.6,98.1,61.9,96.5,60,96.5z"/>
		<path class="st0" d="M72,96.5c-2,0-3.6,1.6-3.6,3.6v7h7.2v-7C75.6,98.1,74,96.5,72,96.5z"/>
		<path class="st0" d="M84,96.5c-2,0-3.6,1.6-3.6,3.6v7h7.2v-7C87.6,98.1,86,96.5,84,96.5z"/>
		<path class="st0" d="M96.1,96.5c-2,0-3.6,1.6-3.6,3.6v7h7.2v-7C99.7,98.1,98.1,96.5,96.1,96.5z"/>
	</g>
	<path class="st1" d="M104.5,91.2H39.5c-1.2,0-2.2-1-2.2-2.2s1-2.2,2.2-2.2h64.9c1.2,0,2.2,1,2.2,2.2
		C106.6,90.3,105.7,91.2,104.5,91.2z"/>
	<g>
		<path class="st1" d="M99.4,68.7c-0.8,0-1.4-0.6-1.4-1.4c0-2.3-1.9-4.2-4.2-4.2c-2.3,0-4.2,1.9-4.2,4.2c0,0.8-0.6,1.4-1.4,1.4
			c-0.8,0-1.4-0.6-1.4-1.4c0-3.8,3.1-7,7-7s7,3.1,7,7C100.8,68.1,100.2,68.7,99.4,68.7z"/>
		<path class="st1" d="M55.7,68.7c-0.8,0-1.4-0.6-1.4-1.4c0-2.3-1.9-4.2-4.2-4.2c-1.1,0-2.2,0.4-3,1.2c-0.5,0.5-1.4,0.5-1.9,0
			c-0.5-0.5-0.5-1.4,0-1.9c1.3-1.3,3.1-2,4.9-2c3.8,0,7,3.1,7,7C57.1,68.1,56.5,68.7,55.7,68.7z"/>
		<path class="st1" d="M44.6,68.7c-0.8,0-1.4-0.6-1.4-1.4c0-0.6,0.1-1.1,0.2-1.7c0.2-0.7,0.9-1.2,1.7-1c0.7,0.2,1.2,0.9,1,1.7
			c-0.1,0.3-0.1,0.7-0.1,1C45.9,68.1,45.3,68.7,44.6,68.7z"/>
		<path class="st1" d="M88.8,38.6c-2-2-4.7-3.1-7.5-3.1c-4,0-7.5,2.2-9.3,5.4c-1.8-3.2-5.3-5.4-9.3-5.4c-5.9,0-10.7,4.8-10.7,10.7
			c0,0.8,0.6,1.4,1.4,1.4c0.8,0,1.4-0.6,1.4-1.4c0-4.4,3.6-7.9,7.9-7.9s7.9,3.6,7.9,7.9v3.7c0,0.8,0.6,1.4,1.4,1.4
			c0.8,0,1.4-0.6,1.4-1.4v-3.7c0-4.4,3.6-7.9,7.9-7.9c2.1,0,4.1,0.8,5.6,2.3c0.5,0.5,1.4,0.5,1.9,0C89.4,40,89.4,39.2,88.8,38.6z
			 M91.6,43.6c-0.2-0.7-0.9-1.2-1.7-1c-0.7,0.2-1.2,0.9-1,1.7c0.2,0.6,0.2,1.3,0.2,1.9c0,0.8,0.6,1.4,1.4,1.4s1.4-0.6,1.4-1.4
			C91.9,45.3,91.8,44.4,91.6,43.6z"/>
	</g>
	<path class="st1" d="M104.5,85.5H91.5v-8.7c1.2-0.6,2-1.8,2-3.2c0-2-1.6-3.5-3.5-3.5H78.2v-5.4c2.7-1.1,5.2-2.9,7.1-5.3h0.1
		c2,0,3.5-1.6,3.5-3.5c0-2-1.6-3.5-3.5-3.5H58.7c-2,0-3.5,1.6-3.5,3.5c0,2,1.6,3.5,3.5,3.5h0.1c1.9,2.4,4.3,4.2,7.1,5.3v5.4H54
		c-2,0-3.5,1.6-3.5,3.5c0,1.4,0.8,2.6,2,3.2v8.7H39.5c-2,0-3.5,1.6-3.5,3.5c0,2,1.6,3.5,3.5,3.5h0v14.5c0,0.8,0.6,1.4,1.4,1.4h62.2
		c0.8,0,1.4-0.6,1.4-1.4V92.6h0c2,0,3.5-1.6,3.5-3.5C108,87.1,106.4,85.5,104.5,85.5z M58.7,56.7c-0.4,0-0.8-0.4-0.8-0.8
		c0-0.4,0.4-0.8,0.8-0.8h26.7c0.4,0,0.8,0.4,0.8,0.8s-0.4,0.8-0.8,0.8C85.3,56.7,58.7,56.7,58.7,56.7z M62.4,59.4h19.1
		c-2.6,2.4-6,3.7-9.6,3.7C68.4,63.2,65,61.8,62.4,59.4z M75.5,65.5v4.6h-7v-4.6c1.1,0.2,2.3,0.4,3.5,0.4
		C73.2,65.9,74.3,65.8,75.5,65.5z M54,72.8H90c0.4,0,0.8,0.4,0.8,0.8c0,0.4-0.4,0.8-0.8,0.8H54c-0.4,0-0.8-0.4-0.8-0.8
		C53.2,73.2,53.6,72.8,54,72.8z M83.2,77.3c-2.6,0-4.7,2.1-4.7,4.7v3.5h-1.8V82c0-2.6-2.1-4.7-4.7-4.7c-2.6,0-4.7,2.1-4.7,4.7v3.5
		h-1.8V82c0-2.6-2.1-4.7-4.7-4.7c-2.6,0-4.7,2.1-4.7,4.7v3.5h-1v-8.3h33.6v8.3h-1V82C87.9,79.4,85.8,77.3,83.2,77.3z M85.1,82v3.5
		h-3.9V82c0-1.1,0.9-2,2-2C84.2,80.1,85.1,81,85.1,82z M74,82v3.5H70V82c0-1.1,0.9-2,2-2C73.1,80.1,74,81,74,82z M62.8,82v3.5h-3.9
		V82c0-1.1,0.9-2,2-2C61.9,80.1,62.8,81,62.8,82z M50.2,105.8h-4.5v-5.7c0-1.2,1-2.2,2.2-2.2c1.2,0,2.2,1,2.2,2.2V105.8z
		 M62.2,105.8h-4.5v-5.7c0-1.2,1-2.2,2.2-2.2c1.2,0,2.2,1,2.2,2.2V105.8z M74.2,105.8h-4.5v-5.7c0-1.2,1-2.2,2.2-2.2
		c1.2,0,2.2,1,2.2,2.2L74.2,105.8L74.2,105.8z M86.3,105.8h-4.5v-5.7c0-1.2,1-2.2,2.2-2.2c1.2,0,2.2,1,2.2,2.2L86.3,105.8
		L86.3,105.8z M98.3,105.8h-4.5v-5.7c0-1.2,1-2.2,2.2-2.2c1.2,0,2.2,1,2.2,2.2V105.8z M101.7,105.8H101v-5.7c0-2.7-2.2-5-5-5
		c-2.7,0-5,2.2-5,5v5.7H89v-5.7c0-2.7-2.2-5-5-5s-5,2.2-5,5v5.7H77v-5.7c0-2.7-2.2-5-5-5s-5,2.2-5,5v5.7h-2.1v-5.7c0-2.7-2.2-5-5-5
		s-5,2.2-5,5v5.7h-2.1v-5.7c0-2.7-2.2-5-5-5c-2.7,0-5,2.2-5,5v5.7h-0.7V92.6h59.4L101.7,105.8L101.7,105.8z M104.5,89.9H39.5
		c-0.4,0-0.8-0.4-0.8-0.8c0-0.4,0.4-0.8,0.8-0.8h64.9c0.4,0,0.8,0.4,0.8,0.8C105.3,89.5,104.9,89.9,104.5,89.9z"/>
</g>
</svg>
