<?xml version="1.0" encoding="utf-8"?>
<!-- Generator: Adobe Illustrator 21.0.0, SVG Export Plug-In . SVG Version: 6.00 Build 0)  -->
<svg version="1.1" id="Слой_1" xmlns="http://www.w3.org/2000/svg" xmlns:xlink="http://www.w3.org/1999/xlink" x="0px" y="0px"
	 viewBox="0 0 72 72" style="enable-background:new 0 0 72 72;" xml:space="preserve">
<style type="text/css">
	.st0{fill:#A69713;}
	.st1{fill:#FFFFFF;}
</style>
<g>
	<circle class="st0" cx="36" cy="36" r="36"/>
</g>
<path class="st1" d="M51,39H21c-1.6,0-3-1.3-3-3v0c0-1.6,1.3-3,3-3h30c1.6,0,3,1.3,3,3v0C54,37.7,52.7,39,51,39z"/>
<path class="st1" d="M36,54L36,54c-1.7,0-3-1.3-3-3V21c0-1.6,1.3-3,3-3h0c1.6,0,3,1.3,3,3v30C39,52.7,37.7,54,36,54z"/>
</svg>
