<?xml version="1.0" encoding="utf-8"?>
<!-- Generator: Adobe Illustrator 21.0.0, SVG Export Plug-In . SVG Version: 6.00 Build 0)  -->
<svg version="1.1" xmlns="http://www.w3.org/2000/svg" xmlns:xlink="http://www.w3.org/1999/xlink" x="0px" y="0px"
	 viewBox="0 0 144 144" style="enable-background:new 0 0 144 144;" xml:space="preserve">
<style type="text/css">
	.st0{fill:#A69713;}
	.st1{fill:#FFFFFF;}
</style>
<g id="Слой_1">
	<g>
		<circle class="st0" cx="72" cy="72" r="72"/>
	</g>
</g>
<g id="Capa_1">
	<g>
		<path class="st1" d="M92.4,51.6c0-2.6-2.2-4.8-4.8-4.8c-1.3,0-2.4-1.1-2.4-2.4c0-2.6-2.2-4.8-4.8-4.8c-1.3,0-2.4-1.1-2.4-2.4
			c0-0.7-0.5-1.2-1.2-1.2c-0.7,0-1.2,0.5-1.2,1.2c0,2.6,2.2,4.8,4.8,4.8c1.3,0,2.4,1.1,2.4,2.4c0,2.6,2.2,4.8,4.8,4.8
			c1.3,0,2.4,1.1,2.4,2.4c0,0.7,0.5,1.2,1.2,1.2C91.9,52.8,92.4,52.3,92.4,51.6z"/>
		<path class="st1" d="M37.2,86.4v1.2c-0.7,0-1.2,0.5-1.2,1.2c0,0.7,0.5,1.2,1.2,1.2v3.6h2.4V96h-2.4c-0.7,0-1.2,0.5-1.2,1.2
			c0,0.7,0.5,1.2,1.2,1.2h2.4c0,0.7,0.5,1.2,1.2,1.2s1.2-0.5,1.2-1.2v-4.8h1.5c-0.2,0.8-0.3,1.6-0.3,2.4c0,6.6,5.4,12,12,12
			s12-5.4,12-12c0-0.8-0.1-1.6-0.3-2.4h2.7v7.2h5.8c0.6,1.4,1.4,2.6,2.5,3.7c0,0,0,0,0,0c0,0,0,0,0,0c2.2,2.2,5.2,3.5,8.5,3.5
			c3.3,0,6.3-1.3,8.5-3.5c0,0,0,0,0,0c0,0,0,0,0,0c1-1,1.9-2.3,2.5-3.7h7v-7.2h0.1c1.9,0,3.5-1.6,3.5-3.5v-6.8l-6-3.6v-6.3
			c0-1.5-1.2-2.6-2.6-2.6h-2.2v-3.5l1.3-6.4l-4.3-5.7h-5.9l-4.3,5.7l1.3,6.5v3.5h-2.4v-6h-6v6h-0.9c-1.5,0-2.7-1.2-2.7-2.7V55.2h2.9
			l-4.5-12H41.3l-5,9.9c-0.2,0.5-0.1,1,0.2,1.4c0.2,0.3,0.4,0.4,0.7,0.6v25.3c-0.7,0-1.2,0.5-1.2,1.2s0.5,1.2,1.2,1.2V84
			c-0.7,0-1.2,0.5-1.2,1.2C36,85.9,36.5,86.4,37.2,86.4z M72.7,52.8H39.1l3.7-7.2H70L72.7,52.8z M55.2,93.6c1.3,0,2.4,1.1,2.4,2.4
			s-1.1,2.4-2.4,2.4s-2.4-1.1-2.4-2.4S53.9,93.6,55.2,93.6z M42,72V60.7l4.3-4.3h3.4l4.3,4.3V72H42z M76.8,96c0-0.3,0-0.6,0-0.9
			c0-0.2,0-0.3,0.1-0.5c0-0.1,0-0.2,0.1-0.3c0-0.2,0.1-0.4,0.1-0.6c0,0,0-0.1,0-0.1c0.1-0.2,0.1-0.5,0.2-0.7c0,0,0,0,0,0
			c0.3-0.9,0.8-1.8,1.4-2.5c0,0,0-0.1,0.1-0.1c0,0,0,0,0,0l3.5,3.5c-0.4,0.7-0.7,1.5-0.7,2.4s0.3,1.7,0.7,2.4l-3.5,3.5
			c-0.6-0.8-1.1-1.7-1.5-2.7c-0.1-0.2-0.2-0.5-0.2-0.7c0,0,0-0.1,0-0.1C77,98.1,77,97.9,77,97.7c0-0.1,0-0.2-0.1-0.3
			c0-0.2,0-0.3-0.1-0.5C76.8,96.6,76.8,96.3,76.8,96z M90.5,98.4c0.4-0.7,0.7-1.5,0.7-2.4s-0.3-1.7-0.7-2.4l3.5-3.5c0,0,0,0,0,0
			c0,0,0,0.1,0.1,0.1c0.6,0.8,1,1.6,1.4,2.5c0,0,0,0,0,0c0.1,0.2,0.2,0.5,0.2,0.7c0,0,0,0.1,0,0.1c0.1,0.2,0.1,0.4,0.1,0.6
			c0,0.1,0,0.2,0.1,0.3c0,0.2,0,0.3,0.1,0.5c0,0.3,0,0.6,0,0.9s0,0.6,0,0.9c0,0.2,0,0.3-0.1,0.5c0,0.1,0,0.2-0.1,0.3
			c0,0.2-0.1,0.4-0.1,0.6c0,0,0,0.1,0,0.1c-0.1,0.2-0.1,0.5-0.2,0.7c-0.3,1-0.8,1.9-1.5,2.7L90.5,98.4z M80.5,88.4
			c0.1-0.1,0.2-0.2,0.3-0.2c0,0,0,0,0.1,0c0.4-0.3,0.8-0.5,1.2-0.7c0,0,0.1,0,0.1-0.1c0.8-0.4,1.7-0.7,2.6-0.8c0.1,0,0.2,0,0.3,0
			c0.4-0.1,0.9-0.1,1.4-0.1c0.5,0,0.9,0,1.4,0.1c0.1,0,0.2,0,0.3,0c0.9,0.2,1.8,0.4,2.6,0.8c0,0,0.1,0,0.1,0.1
			c0.4,0.2,0.8,0.4,1.2,0.7c0,0,0,0,0.1,0c0.1,0.1,0.2,0.2,0.3,0.2l-3.4,3.4c-0.7-0.4-1.5-0.7-2.4-0.7s-1.7,0.3-2.4,0.7L80.5,88.4z
			 M86.4,98.4c-1.3,0-2.4-1.1-2.4-2.4s1.1-2.4,2.4-2.4s2.4,1.1,2.4,2.4S87.7,98.4,86.4,98.4z M80.4,70.8h-1.2v-3.6h1.2V70.8z
			 M94.8,70.8h-7.2v-2.4h7.2V70.8z M98.2,98.4c0.2-0.8,0.2-1.6,0.2-2.4s-0.1-1.6-0.2-2.4h1.4h2.4v4.8H98.2z M86.4,105.6
			c-2.2,0-4.3-0.8-5.9-2l3.5-3.5c0.7,0.4,1.5,0.7,2.4,0.7s1.7-0.3,2.4-0.7l3.5,3.5C90.7,104.8,88.6,105.6,86.4,105.6z M72,93.6h2.6
			c-0.2,0.8-0.2,1.6-0.2,2.4s0.1,1.6,0.2,2.4H72V93.6z M68.4,72h-12V60.7l4.3-4.3h3.4l4.3,4.3V72z M64.5,93.6
			c0.1,0.4,0.2,0.8,0.2,1.2h-4.9c-0.1-0.4-0.3-0.8-0.5-1.2H64.5z M56.4,105.5v-4.9c1.7-0.4,3-1.8,3.4-3.4h4.9
			C64.2,101.5,60.7,105,56.4,105.5z M45.7,97.2h4.9c0.4,1.7,1.8,3,3.4,3.4v4.9C49.7,105,46.2,101.5,45.7,97.2z M45.9,93.6h5.2
			c-0.2,0.4-0.4,0.8-0.5,1.2h-4.9C45.7,94.4,45.8,94,45.9,93.6z"/>
	</g>
</g>
</svg>
