<?xml version="1.0" encoding="utf-8"?>
<!-- Generator: Adobe Illustrator 21.0.0, SVG Export Plug-In . SVG Version: 6.00 Build 0)  -->
<svg version="1.1" id="Слой_1" xmlns="http://www.w3.org/2000/svg" xmlns:xlink="http://www.w3.org/1999/xlink" x="0px" y="0px"
	 viewBox="0 0 521 128" style="enable-background:new 0 0 521 128;" xml:space="preserve">
<style type="text/css">
	.st0{fill:#0D47A1;}
	.st1{fill:#FFFFFF;}
</style>
<g>
	<path class="st0" d="M0.6,126.5c3.2-3.5,6.7-7,9.7-10.7c3.4-4.2,4.7-9.5,5.7-15c69.6,0,139.1,0,208.6,0c0,0.1,0,0.3,0,0.4
		c-11.6,1.4-23.2,2.8-34.8,4.2c-13.5,1.6-27.1,3.2-40.6,4.8c-12.7,1.5-25.4,2.9-38.2,4.3c-13,1.5-26.1,3.1-39.1,4.6
		c-12.9,1.5-25.8,2.9-38.7,4.4c-10.9,1.3-21.8,2.6-32.7,3.9C0.6,127.2,0.6,126.8,0.6,126.5z"/>
	<path class="st1" d="M101.6,0.5c-2.5,5.4-4.9,10.9-7.5,16.5c-5.6,0-11,0-16.9,0C66,42,54.9,66.8,43.7,92c-7.5,0-14.9,0-22.8,0
		C32,67.3,43.1,42.6,54.5,17.5c-5.6-1.5-11.1-0.4-17.1-1.3c1.2-2.8,2.3-5.5,3.5-8.1c1.2-2.5,2.5-5.1,3.7-7.6
		C63.6,0.5,82.6,0.5,101.6,0.5z"/>
	<path class="st1" d="M505.2,72.2c-7.5,16.8-14.9,33.5-22.3,50.1c-5.2,0-10,0-15.1,0c7.5-16.8,14.8-33.3,22.2-49.9
		c-1-0.3-1.5-0.5-2-0.5c-2.5,0.1-5,0.3-6.9,0.5c-1.9,4.2-3.6,8.1-5.3,11.9c-5,0-9.7,0-14.9,0c1.5-3.3,2.9-6.3,4.4-9.5
		c-3.7-1.1-7.3-0.6-11.1-0.4c-5.7,11.8-11.5,23.5-17.5,35.9c4.2,0,8.1,0,12.2,0c1.3-3.4,2.6-6.9,4.1-10.7c5,0,9.9,0,15.4,0
		c-1.8,3.9-3.5,7.6-5.3,11.4c-6.4,3.8-12.9,7.6-19.2,11.4c-4.8,0-9.5,0-14.3,0c-2.6-3.7-5.2-7.3-8-11.3
		c5.8-12.2,11.6-24.5,17.4-36.7c6.1-3.7,12.1-7.3,17.9-10.7c5.3,0,10.3,0,15.6,0c2.1,2.6,4.3,5.3,6.8,8.3c1.7-3.9,3.2-7.4,4.8-11.1
		c11.9,0,23.8,0,36.4,0c-1.6,3.9-3.2,7.6-4.8,11.4C512,72.2,508.7,72.2,505.2,72.2z"/>
	<path class="st1" d="M262.5,122.1c-7.2,0-14.2,0-21.7,0C251.5,97,262,72,272.9,46.4c-5.6-0.4-10.9-0.8-16.5-1.2
		c2.5-5.7,4.9-11.2,7.4-16.9c17.8,0.2,35.4,0.4,53.7,0.7c-1.4,3.4-2.4,6.1-3.5,8.8s-2.3,5.5-3.5,8.4c-5.4,0-10.5,0-16.1,0
		C283.8,71.6,273.2,96.8,262.5,122.1z"/>
	<path class="st1" d="M168.7,28.7c5.1,0,9.8,0,14.9,0c-4.5,10.8-8.9,21.3-13.2,31.8c9-10.1,16.7-21.1,24.8-31.8c4.9,0,9.7,0,15.3,0
		c-9.2,21.4-18.2,42.5-27.3,63.7c-4.8,0-9.5,0-14.6,0c4.8-11.5,9.4-22.8,14.1-34c-0.2-0.1-0.5-0.3-0.7-0.4
		c-8.5,11.5-17,23.1-25.4,34.5c-5,0-9.6,0-14.8,0C150.8,71,159.7,49.9,168.7,28.7z"/>
	<path class="st1" d="M405.7,91.5c-8.4,10.3-16.8,20.6-25.1,30.8c-4.9,0-9.6,0-15,0c9.2-19.7,18.2-39,27.3-58.6c4.9,0,9.8,0,15.2,0
		c-4.3,9.5-8.6,18.8-12.7,27.8c0.4,0.5,0.4,0.7,0.5,0.8c0.1,0,0.3-0.1,0.4-0.2c0.3-0.2,0.6-0.4,0.8-0.6c7.6-9.3,15.1-18.6,22.8-27.9
		c5,0,10,0,15.6,0c-9.4,19.8-18.6,39.2-27.8,58.7c-4.9,0-9.6,0-14.8,0c4.7-10.3,9.2-20.3,13.8-30.3
		C406.4,91.8,406.1,91.7,405.7,91.5z"/>
	<path class="st1" d="M232.4,40.9c-3.7,2.3-5.1,6-7.1,9.2c-2.2,3.5-4.2,7.2-6.3,10.8c-2,3.4-4,6.9-6,10.4c-2.1,3.6-4.2,7.2-6.3,10.8
		c-2,3.4-4,6.9-6.1,10.3c-4.5,0-8.8,0-13.9,0c12.8-21.4,25.4-42.5,38-63.6c7.8,0,15.6,0,23.8,0c-5.4,21.3-10.8,42.3-16.3,63.5
		c-4.6,0-9,0-14.1,0C223,74.9,227.7,57.9,232.4,40.9z"/>
	<path class="st1" d="M294.3,122.4c-4.5,0-8.7,0-13.5,0c3.7-4.8,7.2-9.2,10.9-14c1.5-15.4,3-31.3,4.6-47.5c5.2,0,10.1,0,15.4,0
		c-2.2,9.5-4.3,18.8-6.4,28.1c0.3,0.2,0.6,0.3,0.8,0.5c0.7-0.7,1.5-1.2,2-2c4.4-7.3,8.7-14.5,13.1-21.8c0.9-1.6,1.9-3.1,2.9-4.8
		c4.5,0,8.9,0,14.2,0C323.7,81.6,309,101.8,294.3,122.4z"/>
	<path class="st1" d="M165.5,28.8c-1.6,3.8-3,7.1-4.6,10.7c-6,0-12,0-18.4,0c-7.6,17.6-15.1,35.1-22.7,52.8c-5.2,0-10.3,0-16.1,0
		c9.3-21.2,18.5-42.3,27.8-63.5C142.7,28.8,153.8,28.8,165.5,28.8z"/>
	<g>
		<path class="st1" d="M224.8,28.7c-12.6,21.2-25.2,42.2-38,63.6c5.1,0,9.4,0,13.9,0c2-3.5,4.1-6.9,6.1-10.3
			c2.1-3.6,4.2-7.2,6.3-10.8c2-3.5,4-6.9,6-10.4c2.1-3.6,4.1-7.2,6.3-10.8c1.9-3.1,3.3-6.8,7-9.1c-4.7,17-9.4,34-14.2,51.3
			c5.1,0,9.5,0,14.1,0c5.4-21.2,10.8-42.2,16.3-63.5C240.3,28.7,232.6,28.7,224.8,28.7z"/>
		<path class="st1" d="M310.5,46.2c1.2-2.9,2.4-5.6,3.5-8.4c1.1-2.7,2.2-5.4,3.5-8.8c-18.4-0.2-35.9-0.5-53.7-0.7
			c-2.5,5.7-4.9,11.1-7.4,16.9c5.6,0.4,10.8,0.8,16.5,1.2C262,72,251.5,96.9,240.8,122.1c7.5,0,14.4,0,21.7,0
			c10.7-25.4,21.3-50.6,31.9-75.9C300,46.2,305.1,46.2,310.5,46.2z"/>
		<path class="st1" d="M92.3,28.7c-12,20.7-24.1,41.5-36.7,63.1c5.1,0.3,9.5,0.5,13.9,0.8c2.4-4.6,4.7-8.8,7-13.1c2.2,0,4.2,0,6.2,0
			c1.9,0,3.9,0.1,6.2,0.1c-1.1,4.5-2.1,8.5-3.1,12.7c4.8,0,9.2,0,14,0c5.2-21.1,10.3-42.2,15.5-63.6
			C107.5,28.7,100.1,28.7,92.3,28.7z M92.6,66.5c-2.8,0-5.3,0-8.6,0c5.1-9,9.8-17.5,14.5-25.9c0,0,0.1,0,0.1,0c0,0,0,0,0,0
			c0.2,0.1,0.3,0.1,0.5,0.2c0,0,0,0,0,0c0.2,0.1,0.4,0.2,0.6,0.3C97.4,49.5,95,57.9,92.6,66.5z"/>
		<path class="st1" d="M161,39.5c1.4-3.6,2.9-7,4.5-10.7c-11.7,0-22.7,0-33.9,0C122.3,50,113.1,71,103.8,92.3c5.8,0,10.9,0,16.1,0
			c7.6-17.6,15.1-35.1,22.7-52.8C149,39.5,154.9,39.5,161,39.5z"/>
		<path class="st1" d="M195.1,28.6c-8.2,10.7-15.8,21.7-24.8,31.8c4.4-10.5,8.7-21,13.2-31.8c-5,0.1-9.7,0.1-14.8,0.1
			c-9,21.3-17.9,42.3-27,63.7c5.2,0,9.8,0,14.8,0c8.4-11.4,16.9-22.9,25.4-34.5c0.2,0.1,0.5,0.3,0.7,0.4c-4.7,11.2-9.3,22.5-14.1,34
			c5.1,0,9.7,0,14.6,0c9.1-21.2,18.1-42.2,27.3-63.7C204.9,28.6,200.1,28.6,195.1,28.6z"/>
		<path class="st1" d="M484,60.8c-1.6,3.7-3.1,7.2-4.8,11.1c-2.5-3-4.7-5.7-6.8-8.3c-5.3,0-10.3,0-15.6,0
			c-5.8,3.5-11.8,7.1-17.9,10.7c-5.8,12.2-11.6,24.5-17.4,36.7c2.8,4,5.4,7.6,8,11.3c4.8,0,9.5,0,14.3,0c6.3-3.8,12.8-7.6,19.2-11.4
			c1.7-3.8,3.4-7.5,5.3-11.4c-5.5,0-10.5,0-15.4,0c-1.4,3.8-2.8,7.3-4.1,10.7c-4.2,0-8,0-12.2,0c6-12.3,11.8-24.1,17.5-35.9
			c3.9-0.2,7.4-0.7,11.1,0.4c-1.5,3.3-2.9,6.2-4.4,9.5c5.2,0,9.9,0,14.9,0c1.7-3.8,3.4-7.7,5.3-11.9c2-0.1,4.4-0.3,6.9-0.5
			c0.5,0,0.9,0.2,2,0.5c-7.4,16.6-14.7,33.1-22.2,49.9c5.2,0,10,0,15.1,0c7.5-16.5,14.9-33.2,22.4-50c3.5,0,6.8,0,10.4,0
			c1.6-3.9,3.2-7.6,4.8-11.4C507.9,60.8,495.9,60.8,484,60.8z"/>
		<path class="st1" d="M419.9,63.6c-7.6,9.3-15.2,18.6-22.8,27.9c-0.2,0.3-0.5,0.4-0.8,0.6c-0.1,0.1-0.3,0.2-0.4,0.2
			c-0.1,0-0.2-0.2-0.5-0.8c4.1-9.1,8.4-18.3,12.7-27.8c-5.4,0-10.3,0-15.2,0c-9.1,19.6-18.1,38.9-27.3,58.6c5.4,0,10,0,15,0
			c8.4-10.1,16.8-20.5,25.1-30.8c0.3,0.2,0.7,0.3,1,0.5c-4.5,10-9.1,20-13.8,30.3c5.2,0,9.8,0,14.8,0c9.2-19.4,18.4-38.9,27.8-58.7
			C429.9,63.6,425,63.6,419.9,63.6z"/>
		<path class="st1" d="M324.2,60.9c-1,1.7-2,3.2-2.9,4.8c-4.4,7.3-8.7,14.6-13.1,21.8c-0.5,0.8-1.3,1.4-2,2
			c-0.3-0.2-0.6-0.3-0.8-0.5c2.1-9.3,4.2-18.6,6.4-28.1c-5.3,0-10.2,0-15.4,0c-1.6,16.2-3.1,32.1-4.6,47.5c-3.7,4.8-7.2,9.2-10.9,14
			c4.7,0,8.9,0,13.4,0c14.7-20.6,29.4-40.8,44.1-61.5C333.2,60.9,328.7,60.9,324.2,60.9z"/>
	</g>
	<path class="st1" d="M368.2,61.5c-8.2-0.3-16.3-0.7-24.2-1c-8.9,20.9-17.5,41.2-26.3,61.8c4.9,0,9.5,0,14.3,0
		c2.9-6.9,5.7-13.8,8.6-20.7c3.8,0,7.3,0,10.9,0c5.8-4.1,11.3-7.9,16.7-11.7c2.8-6.2,5.6-12.4,8.3-18.5
		C373.5,67.9,370.9,64.7,368.2,61.5z M354.5,90.2C354.5,90.2,354.4,90.2,354.5,90.2c-2.6,0-5,0-8.3,0c2.6-6.1,5-11.7,7.3-17.4
		c0,0,0.1,0,0.1,0c2.7,0,5.2,0,8.2,0c0,0,0.1,0,0.1,0C359.3,78.8,357,84.4,354.5,90.2z"/>
</g>
</svg>
